<svg version="1.1" viewBox="0.0 0.0 960.0 960.0" fill="none" stroke="none" stroke-linecap="square" stroke-miterlimit="10" xmlns:xlink="http://www.w3.org/1999/xlink" xmlns="http://www.w3.org/2000/svg"><clipPath id="p.0"><path d="m0 0l960.0 0l0 960.0l-960.0 0l0 -960.0z" clip-rule="nonzero"/></clipPath><g clip-path="url(#p.0)"><path fill="#000000" fill-opacity="0.0" d="m0 0l960.0 0l0 960.0l-960.0 0z" fill-rule="evenodd"/><defs><linearGradient id="p.1" gradientUnits="userSpaceOnUse" gradientTransform="matrix(30.984037513706344 0.0 0.0 30.984037513706344 0.0 0.0)" spreadMethod="pad" x1="30.983696026553247" y1="30.98403751557503" x2="30.98403751557503" y2="3.750535879125569E-9"><stop offset="0.0" stop-color="#1c4587"/><stop offset="1.0" stop-color="#00ff00"/></linearGradient></defs><path fill="url(#p.1)" d="m0 480.0l0 0c0 -265.09668 214.90332 -480.0 480.0 -480.0l0 0c127.303894 0 249.3938 50.571285 339.41125 140.58875c90.017456 90.017456 140.58875 212.10733 140.58875 339.41125l0 0c0 265.09668 -214.90332 480.0 -480.0 480.0l0 0c-265.09668 0 -480.0 -214.90332 -480.0 -480.0z" fill-rule="evenodd"/><defs><linearGradient id="p.2" gradientUnits="userSpaceOnUse" gradientTransform="matrix(30.199392400363287 0.0 0.0 30.199392400363287 0.0 0.0)" spreadMethod="pad" x1="0.7947179758395169" y1="0.794608657575739" x2="0.794608657575739" y2="30.99400105774116"><stop offset="0.0" stop-color="#1c4587"/><stop offset="1.0" stop-color="#38761d"/></linearGradient></defs><path fill="url(#p.2)" d="m24.0 480.0l0 0c0 -251.84184 204.15816 -456.0 456.0 -456.0l0 0c120.93872 0 236.92413 48.042717 322.44067 133.55931c85.5166 85.51659 133.55933 201.50197 133.55933 322.44067l0 0c0 251.84186 -204.15814 456.0 -456.0 456.0l0 0c-251.84184 0 -456.0 -204.15814 -456.0 -456.0z" fill-rule="evenodd"/><path fill="#000000" fill-opacity="0.0" d="m220.11023 370.4777l0 0c0 -30.243744 24.51741 -54.76117 54.76117 -54.76117l248.44354 0l0 0l129.94489 0l31.868774 0c14.52356 0 28.45227 5.76947 38.721985 16.039185c10.269714 10.269714 16.039185 24.198425 16.039185 38.721985l0 136.9029l0 0l0 82.141754l0 0c0 30.243713 -24.517395 54.76111 -54.76117 54.76111l-31.868774 0l13.647705 63.597412l-143.59259 -63.597412l-248.44354 0c-30.24376 0 -54.76117 -24.517395 -54.76117 -54.76111l0 0l0 -82.141754l0 0z" fill-rule="evenodd"/><path stroke="#ffffff" stroke-width="24.0" stroke-linejoin="round" stroke-linecap="butt" d="m220.11023 370.4777l0 0c0 -30.243744 24.51741 -54.76117 54.76117 -54.76117l248.44354 0l0 0l129.94489 0l31.868774 0c14.52356 0 28.45227 5.76947 38.721985 16.039185c10.269714 10.269714 16.039185 24.198425 16.039185 38.721985l0 136.9029l0 0l0 82.141754l0 0c0 30.243713 -24.517395 54.76111 -54.76117 54.76111l-31.868774 0l13.647705 63.597412l-143.59259 -63.597412l-248.44354 0c-30.24376 0 -54.76117 -24.517395 -54.76117 -54.76111l0 0l0 -82.141754l0 0z" fill-rule="evenodd"/><path fill="#000000" fill-opacity="0.0" d="m316.59842 408.64566l326.80313 -1.2913208" fill-rule="evenodd"/><path stroke="#ffffff" stroke-width="24.0" stroke-linejoin="round" stroke-linecap="butt" d="m316.59842 408.64566l326.80313 -1.2913208" fill-rule="evenodd"/><path fill="#000000" fill-opacity="0.0" d="m316.59842 480.64566l326.80313 -1.2913208" fill-rule="evenodd"/><path stroke="#ffffff" stroke-width="24.0" stroke-linejoin="round" stroke-linecap="butt" d="m316.59842 480.64566l326.80313 -1.2913208" fill-rule="evenodd"/><path fill="#000000" fill-opacity="0.0" d="m316.59842 552.6457l326.80313 -1.2913818" fill-rule="evenodd"/><path stroke="#ffffff" stroke-width="24.0" stroke-linejoin="round" stroke-linecap="butt" d="m316.59842 552.6457l326.80313 -1.2913818" fill-rule="evenodd"/></g></svg>